
<svg t="1599642127954" class="icon" viewBox="0 0 1024 1024" version="1.1" xmlns="http://www.w3.org/2000/svg" p-id="3274" width="200" height="200"><path d="M512 1024C229.376 1024 0 794.624 0 512S229.376 0 512 0s512 229.376 512 512-229.376 512-512 512z m183.296-481.28c3.072-2.048 6.144-4.096 7.168-7.168 7.168-11.264 3.072-25.6-7.168-31.744L431.104 340.992c-4.096-2.048-8.192-3.072-12.288-3.072-13.312 0-23.552 10.24-23.552 23.552V686.08c0 4.096 1.024 8.192 3.072 12.288 7.168 11.264 21.504 14.336 31.744 7.168L695.296 542.72z" p-id="3275" fill="rgba(255,255,255,.8)"></path></svg>